<?xml version="1.0" encoding="UTF-8" standalone="no"?>
<!DOCTYPE svg PUBLIC "-//W3C//DTD SVG 1.1//EN" "http://www.w3.org/Graphics/SVG/1.1/DTD/svg11.dtd">
<svg width="100%" height="100%" viewBox="0 0 300 170" version="1.1" xmlns="http://www.w3.org/2000/svg" xmlns:xlink="http://www.w3.org/1999/xlink" xml:space="preserve" xmlns:serif="http://www.serif.com/" style="fill-rule:evenodd;clip-rule:evenodd;stroke-linejoin:round;stroke-miterlimit:2;">
    <g id="lab" transform="matrix(0.110094,0,0,0.110094,70.3621,85)">
        <g transform="matrix(1,0,0,1,-244,-244)">
            <path d="M116,184L116,152L164,152L164,184" style="fill:rgb(188,143,111);fill-rule:nonzero;"/>
            <path d="M116,184L116,152L148,152L148,184" style="fill:rgb(203,158,120);fill-rule:nonzero;"/>
            <rect x="372" y="120" width="112" height="32" style="fill:rgb(188,143,111);fill-rule:nonzero;"/>
            <rect x="372" y="120" width="72" height="32" style="fill:rgb(203,158,120);fill-rule:nonzero;"/>
            <path d="M468,152L388,152L388,448C388,470.09 405.91,488 428,488C450.09,488 468,470.09 468,448L468,152Z" style="fill:rgb(186,184,185);fill-rule:nonzero;"/>
            <path d="M416,485.969C432.184,480.848 444,465.887 444,448L444,152L388,152L388,448C388,465.879 399.816,480.84 416,485.969Z" style="fill:rgb(217,215,216);fill-rule:nonzero;"/>
            <path d="M428,488C450.09,488 468,470.09 468,448L468,264L388,264L388,448C388,470.09 405.91,488 428,488Z" style="fill:rgb(212,107,105);fill-rule:nonzero;"/>
            <path d="M416,485.969C432.184,480.848 444,465.887 444,448L444,264L388,264L388,448C388,465.879 399.816,480.84 416,485.969Z" style="fill:rgb(237,119,117);fill-rule:nonzero;"/>
            <path d="M244,488C261.672,488 276,473.672 276,456L276,448.16C276,442.809 274.656,437.535 272.098,432.84L180,264L180,184L100.07,184L100.07,264L7.984,432.84C5.426,437.543 4.078,442.809 4.078,448.16L4.078,456C4.078,473.672 18.406,488 36.078,488L244,488Z" style="fill:rgb(186,184,185);fill-rule:nonzero;"/>
            <path d="M252,456L252,448.16C252,442.809 250.656,437.535 248.098,432.84L156,264L156,184L100.07,184L100.07,264L7.984,432.84C5.426,437.543 4.078,442.809 4.078,448.16L4.078,456C4.078,473.672 18.406,488 36.078,488L220,488C237.672,488 252,473.672 252,456Z" style="fill:rgb(217,215,216);fill-rule:nonzero;"/>
            <path d="M276,456L276,448.16C276,442.809 274.656,437.535 272.098,432.84L214.91,328L202.625,328C198.383,328 194.312,329.688 191.312,332.688L184.687,339.313C181.687,342.313 177.617,344 173.375,344L170.633,344C166.391,344 162.32,342.313 159.32,339.313L152.695,332.688C149.687,329.688 145.617,328 141.375,328L138.633,328C134.391,328 130.32,329.688 127.32,332.688L120.695,339.313C117.687,342.313 113.617,344 109.375,344L106.633,344C102.391,344 98.32,342.313 95.32,339.313L88.695,332.688C85.687,329.688 81.617,328 77.375,328L65.168,328L7.984,432.84C5.426,437.543 4.078,442.809 4.078,448.16L4.078,456C4.078,473.672 18.406,488 36.078,488L244,488C261.672,488 276,473.672 276,456Z" style="fill:rgb(89,144,114);fill-rule:nonzero;"/>
            <path d="M260,280L260,348.184C232.055,358.078 212,384.664 212,416C212,455.77 244.23,488 284,488C323.77,488 356,455.77 356,416C356,384.664 335.945,358.078 308,348.184L308,280" style="fill:rgb(186,184,185);fill-rule:nonzero;"/>
            <path d="M212,416C212,453.055 240.008,483.543 276,487.527C311.992,483.543 340,453.055 340,416C340,384.664 319.945,358.078 292,348.184L292,280L260,280L260,348.184C232.055,358.078 212,384.664 212,416Z" style="fill:rgb(217,215,216);fill-rule:nonzero;"/>
            <path d="M356,416C356,413.289 355.801,410.633 355.504,408L346.625,408C342.383,408 338.313,409.688 335.313,412.688L328.688,419.313C325.688,422.313 321.617,424 317.375,424L314.633,424C310.391,424 306.32,422.313 303.32,419.313L296.695,412.688C293.688,409.688 289.617,408 285.375,408L282.633,408C278.391,408 274.32,409.688 271.32,412.688L264.695,419.313C261.688,422.313 257.617,424 253.375,424L250.633,424C246.391,424 242.32,422.313 239.32,419.313L232.695,412.688C229.688,409.688 225.617,408 221.375,408L212.496,408C212.199,410.633 212,413.289 212,416C212,455.77 244.23,488 284,488C323.77,488 356,455.77 356,416Z" style="fill:rgb(133,182,207);fill-rule:nonzero;"/>
            <path d="M276,487.527C311.992,483.543 340,453.055 340,416C340,413.863 339.809,411.777 339.609,409.695C338.039,410.465 336.566,411.434 335.313,412.688L328.688,419.313C325.688,422.313 321.617,424 317.375,424L314.633,424C312.32,424 310.07,423.457 308.008,422.512C305.938,423.457 303.688,424 301.375,424L298.633,424C294.391,424 290.32,422.313 287.32,419.313L280.695,412.688C279.336,411.328 277.727,410.273 276.008,409.488C274.289,410.273 272.688,411.328 271.32,412.688L264.695,419.313C261.688,422.313 257.617,424 253.375,424L250.633,424C248.32,424 246.07,423.457 244.008,422.512C241.938,423.457 239.688,424 237.375,424L234.633,424C230.391,424 226.32,422.313 223.32,419.313L216.695,412.688C215.441,411.434 213.969,410.465 212.398,409.695C212.191,411.777 212,413.863 212,416C212,453.055 240.008,483.543 276,487.527Z" style="fill:rgb(148,204,231);fill-rule:nonzero;"/>
            <path d="M132,424C132,432.836 124.836,440 116,440C107.164,440 100,432.836 100,424C100,415.164 107.164,408 116,408C124.836,408 132,415.164 132,424Z" style="fill:rgb(112,180,143);fill-rule:nonzero;"/>
            <path d="M188,392C188,400.836 180.836,408 172,408C163.164,408 156,400.836 156,392C156,383.164 163.164,376 172,376C180.836,376 188,383.164 188,392Z" style="fill:rgb(112,180,143);fill-rule:nonzero;"/>
            <path d="M68,440C68,448.836 60.836,456 52,456C43.164,456 36,448.836 36,440C36,431.164 43.164,424 52,424C60.836,424 68,431.164 68,440Z" style="fill:rgb(112,180,143);fill-rule:nonzero;"/>
            <path d="M68,40C68,57.672 53.672,72 36,72C18.328,72 4,57.672 4,40C4,22.328 18.328,8 36,8C53.672,8 68,22.328 68,40Z" style="fill:rgb(89,144,114);fill-rule:nonzero;"/>
            <path d="M84,120C84,128.836 76.836,136 68,136C59.164,136 52,128.836 52,120C52,111.164 59.164,104 68,104C76.836,104 84,111.164 84,120Z" style="fill:rgb(133,182,207);fill-rule:nonzero;"/>
            <path d="M52,192C52,205.254 41.254,216 28,216C14.746,216 4,205.254 4,192C4,178.746 14.746,168 28,168C41.254,168 52,178.746 52,192Z" style="fill:rgb(203,158,120);fill-rule:nonzero;"/>
            <rect x="236" y="272" width="96" height="16" style="fill-rule:nonzero;"/>
            <rect x="236" y="272" width="96" height="16" style="fill:rgb(188,143,111);fill-rule:nonzero;"/>
            <rect x="236" y="272" width="72" height="16" style="fill:rgb(203,158,120);fill-rule:nonzero;"/>
            <rect x="260" y="304" width="48" height="16" style="fill:rgb(188,143,111);fill-rule:nonzero;"/>
            <rect x="260" y="304" width="32" height="16" style="fill:rgb(203,158,120);fill-rule:nonzero;"/>
            <rect x="76" y="208" width="128" height="16" style="fill:rgb(188,143,111);fill-rule:nonzero;"/>
            <rect x="76" y="208" width="80" height="16" style="fill:rgb(203,158,120);fill-rule:nonzero;"/>
            <rect x="180" y="448" width="16" height="16" style="fill:rgb(112,180,143);fill-rule:nonzero;"/>
            <rect x="164" y="432" width="16" height="16" style="fill:rgb(112,180,143);fill-rule:nonzero;"/>
            <rect x="148" y="448" width="16" height="16" style="fill:rgb(112,180,143);fill-rule:nonzero;"/>
            <rect x="84" y="376" width="16" height="16" style="fill:rgb(112,180,143);fill-rule:nonzero;"/>
            <g>
                <rect x="412" y="440" width="16" height="16" style="fill:rgb(212,107,105);fill-rule:nonzero;"/>
                <rect x="428" y="408" width="16" height="16" style="fill:rgb(212,107,105);fill-rule:nonzero;"/>
                <rect x="412" y="376" width="16" height="16" style="fill:rgb(212,107,105);fill-rule:nonzero;"/>
                <rect x="428" y="344" width="16" height="16" style="fill:rgb(212,107,105);fill-rule:nonzero;"/>
                <rect x="412" y="312" width="16" height="16" style="fill:rgb(212,107,105);fill-rule:nonzero;"/>
            </g>
            <path d="M172,128L156,128L156,24C156,10.77 166.77,0 180,0L452,0C465.23,0 476,10.77 476,24L476,96L460,96L460,24C460,19.594 456.414,16 452,16L180,16C175.586,16 172,19.594 172,24L172,128Z" style="fill:rgb(237,119,117);fill-rule:nonzero;"/>
            <path d="M316,256L300,256L300,88C300,83.594 296.414,80 292,80L132,80C127.586,80 124,83.594 124,88L124,128L108,128L108,88C108,74.77 118.77,64 132,64L292,64C305.23,64 316,74.77 316,88L316,256Z" style="fill:rgb(89,144,114);fill-rule:nonzero;"/>
            <path d="M268,256L252,256L252,56C252,42.77 262.77,32 276,32L372,32C385.23,32 396,42.77 396,56L396,96L380,96L380,56C380,51.594 376.414,48 372,48L276,48C271.586,48 268,51.594 268,56L268,256Z" style="fill:rgb(148,204,231);fill-rule:nonzero;"/>
        </g>
    </g>
    <g transform="matrix(1,0,0,1,-19.4549,43.2624)">
        <text x="134.065px" y="45.877px" style="font-family:'SourceHanSerifSC-Bold', 'Source Han Serif SC', serif;font-weight:700;font-size:33.333px;">实验项目</text>
    </g>
    <g transform="matrix(0.655754,0,0,0.655754,35.3074,18.0145)">
        <text x="121.52px" y="136.451px" style="font-family:'SourceHanSerifSC-Heavy', 'Source Han Serif SC', serif;font-weight:900;font-size:20.833px;">Ex<tspan x="147.999px 162.499px " y="136.451px 136.451px ">pe</tspan>rimental Pr<tspan x="299.437px " y="136.451px ">o</tspan>jec<tspan x="344.062px " y="136.451px ">t</tspan></text>
    </g>
</svg>
